<svg width="20" height="20" viewBox="0 0 20 20" fill="none" xmlns="http://www.w3.org/2000/svg">
    <path d="M8.7349 3.60018C8.7349 4.84164 10 6.49574 10 6.49574C10 6.49574 11.2651 4.84164 11.2651 3.60018C11.2651 2.35871 10.6987 2 10 2C9.30131 2 8.7349 2.35871 8.7349 3.60018Z" fill="#D7E8F5"/>
    <path d="M11.8792 3.75244C11.3057 4.8517 11.6616 6.9077 11.6616 6.9077C11.6616 6.9077 13.546 6.03445 14.1196 4.93519C14.6932 3.83593 14.3574 3.25353 13.7387 2.92693C13.12 2.60032 12.4528 2.65318 11.8792 3.75244Z" fill="#D7E8F5"/>
    <path d="M14.593 5.35709C13.5773 6.06232 12.9426 8.04923 12.9426 8.04923C12.9426 8.04923 15.0146 8.15687 16.0304 7.45164C17.0461 6.74641 17.0178 6.07375 16.6209 5.49536C16.224 4.91697 15.6088 4.65186 14.593 5.35709Z" fill="#D7E8F5"/>
    <path d="M16.2547 8.04653C15.0294 8.19617 13.5495 9.6588 13.5495 9.6588C13.5495 9.6588 15.3344 10.7227 16.5596 10.573C17.7848 10.4234 18.0706 9.81458 17.9864 9.1169C17.9021 8.41923 17.4799 7.89689 16.2547 8.04653Z" fill="#D7E8F5"/>
    <path d="M16.4834 11.2046C15.3294 10.7644 13.3432 11.3677 13.3432 11.3677C13.3432 11.3677 14.4322 13.1441 15.5862 13.5843C16.7402 14.0245 17.2745 13.619 17.5222 12.9619C17.77 12.3048 17.6374 11.6449 16.4834 11.2046Z" fill="#D7E8F5"/>
    <path d="M15.2269 14.1079C14.4084 13.1787 12.371 12.7844 12.371 12.7844C12.371 12.7844 12.5146 14.8664 13.333 15.7956C14.1514 16.7249 14.8119 16.6156 15.3348 16.1495C15.8578 15.6835 16.0453 15.0372 15.2269 14.1079Z" fill="#D7E8F5"/>
    <path d="M12.7729 16.0913C12.4776 14.8859 10.8557 13.5844 10.8557 13.5844C10.8557 13.5844 10.0209 15.495 10.3163 16.7004C10.6116 17.9057 11.2469 18.1177 11.9253 17.9495C12.6037 17.7813 13.0683 17.2967 12.7729 16.0913Z" fill="#D7E8F5"/>
    <path d="M9.68374 16.7004C9.97911 15.495 9.14431 13.5844 9.14431 13.5844C9.14431 13.5844 7.52244 14.8859 7.22707 16.0913C6.93171 17.2967 7.39631 17.7813 8.0747 17.9495C8.75309 18.1177 9.38838 17.9057 9.68374 16.7004Z" fill="#D7E8F5"/>
    <path d="M6.66701 15.7956C7.48544 14.8664 7.62896 12.7844 7.62896 12.7844C7.62896 12.7844 5.59157 13.1787 4.77314 14.1079C3.95471 15.0372 4.14218 15.6835 4.66516 16.1495C5.18814 16.6156 5.84858 16.7249 6.66701 15.7956Z" fill="#D7E8F5"/>
    <path d="M4.41383 13.5843C5.56783 13.1441 6.65679 11.3677 6.65679 11.3677C6.65679 11.3677 4.67061 10.7644 3.51661 11.2046C2.36261 11.6449 2.23001 12.3048 2.47777 12.9619C2.72553 13.619 3.25982 14.0245 4.41383 13.5843Z" fill="#D7E8F5"/>
    <path d="M3.44037 10.573C4.66558 10.7227 6.4505 9.6588 6.4505 9.6588C6.4505 9.6588 4.97056 8.19617 3.74535 8.04653C2.52014 7.89689 2.09785 8.41923 2.01363 9.1169C1.92941 9.81458 2.21516 10.4234 3.44037 10.573Z" fill="#D7E8F5"/>
    <path d="M3.96964 7.45164C4.98537 8.15687 7.05737 8.04923 7.05737 8.04923C7.05737 8.04923 6.42268 6.06232 5.40695 5.35709C4.39122 4.65186 3.77598 4.91697 3.37907 5.49536C2.98217 6.07376 2.95391 6.74641 3.96964 7.45164Z" fill="#D7E8F5"/>
    <path d="M5.8804 4.93519C6.45396 6.03445 8.33835 6.9077 8.33835 6.9077C8.33835 6.9077 8.69433 4.8517 8.12077 3.75244C7.5472 2.65318 6.87995 2.60032 6.26129 2.92693C5.64263 3.25354 5.30683 3.83593 5.8804 4.93519Z" fill="#D7E8F5"/>
</svg>
