<svg width="42" height="20" viewBox="0 0 42 20" fill="none" xmlns="http://www.w3.org/2000/svg">
    <!-- Square tile (0-20) -->
    <path d="M18 2L18 18H16.5L16.5 2H18Z" fill="#D7E8F5"/>
    <path d="M13.1665 2L13.1665 18H11.6665L11.6665 2H13.1665Z" fill="#D7E8F5"/>
    <path d="M8.3335 2L8.3335 18H6.8335L6.8335 2H8.3335Z" fill="#D7E8F5"/>
    <path d="M3.5 2L3.5 18H2L2 2H3.5Z" fill="#D7E8F5"/>
    <!-- Circle tile (21-41), offset +21 -->
    <path d="M29.7349 3.60018C29.7349 4.84164 31 6.49574 31 6.49574C31 6.49574 32.2651 4.84164 32.2651 3.60018C32.2651 2.35871 31.6987 2 31 2C30.3013 2 29.7349 2.35871 29.7349 3.60018Z" fill="#D7E8F5"/>
    <path d="M32.8792 3.75244C32.3057 4.8517 32.6616 6.9077 32.6616 6.9077C32.6616 6.9077 34.546 6.03445 35.1196 4.93519C35.6932 3.83593 35.3574 3.25353 34.7387 2.92693C34.12 2.60032 33.4528 2.65318 32.8792 3.75244Z" fill="#D7E8F5"/>
    <path d="M35.593 5.35709C34.5773 6.06232 33.9426 8.04923 33.9426 8.04923C33.9426 8.04923 36.0146 8.15687 37.0304 7.45164C38.0461 6.74641 38.0178 6.07375 37.6209 5.49536C37.224 4.91697 36.6088 4.65186 35.593 5.35709Z" fill="#D7E8F5"/>
    <path d="M37.2547 8.04653C36.0294 8.19617 34.5495 9.6588 34.5495 9.6588C34.5495 9.6588 36.3344 10.7227 37.5596 10.573C38.7848 10.4234 39.0706 9.81458 38.9864 9.1169C38.9021 8.41923 38.4799 7.89689 37.2547 8.04653Z" fill="#D7E8F5"/>
    <path d="M37.4834 11.2046C36.3294 10.7644 34.3432 11.3677 34.3432 11.3677C34.3432 11.3677 35.4322 13.1441 36.5862 13.5843C37.7402 14.0245 38.2745 13.619 38.5222 12.9619C38.77 12.3048 38.6374 11.6449 37.4834 11.2046Z" fill="#D7E8F5"/>
    <path d="M36.2269 14.1079C35.4084 13.1787 33.371 12.7844 33.371 12.7844C33.371 12.7844 33.5146 14.8664 34.333 15.7956C35.1514 16.7249 35.8119 16.6156 36.3348 16.1495C36.8578 15.6835 37.0453 15.0372 36.2269 14.1079Z" fill="#D7E8F5"/>
    <path d="M33.7729 16.0913C33.4776 14.8859 31.8557 13.5844 31.8557 13.5844C31.8557 13.5844 31.0209 15.495 31.3163 16.7004C31.6116 17.9057 32.2469 18.1177 32.9253 17.9495C33.6037 17.7813 34.0683 17.2967 33.7729 16.0913Z" fill="#D7E8F5"/>
    <path d="M30.6837 16.7004C30.9791 15.495 30.1443 13.5844 30.1443 13.5844C30.1443 13.5844 28.5224 14.8859 28.2271 16.0913C27.9317 17.2967 28.3963 17.7813 29.0747 17.9495C29.7531 18.1177 30.3884 17.9057 30.6837 16.7004Z" fill="#D7E8F5"/>
    <path d="M27.667 15.7956C28.4854 14.8664 28.629 12.7844 28.629 12.7844C28.629 12.7844 26.5916 13.1787 25.7731 14.1079C24.9547 15.0372 25.1422 15.6835 25.6652 16.1495C26.1881 16.6156 26.8486 16.7249 27.667 15.7956Z" fill="#D7E8F5"/>
    <path d="M25.4138 13.5843C26.5678 13.1441 27.6568 11.3677 27.6568 11.3677C27.6568 11.3677 25.6706 10.7644 24.5166 11.2046C23.3626 11.6449 23.23 12.3048 23.4778 12.9619C23.7255 13.619 24.2598 14.0245 25.4138 13.5843Z" fill="#D7E8F5"/>
    <path d="M24.4404 10.573C25.6656 10.7227 27.4505 9.6588 27.4505 9.6588C27.4505 9.6588 25.9706 8.19617 24.7454 8.04653C23.5201 7.89689 23.0979 8.41923 23.0136 9.1169C22.9294 9.81458 23.2152 10.4234 24.4404 10.573Z" fill="#D7E8F5"/>
    <path d="M24.9696 7.45164C25.9854 8.15687 28.0574 8.04923 28.0574 8.04923C28.0574 8.04923 27.4227 6.06232 26.407 5.35709C25.3912 4.65186 24.776 4.91697 24.3791 5.49536C23.9822 6.07376 23.9539 6.74641 24.9696 7.45164Z" fill="#D7E8F5"/>
    <path d="M26.8804 4.93519C27.454 6.03445 29.3384 6.9077 29.3384 6.9077C29.3384 6.9077 29.6943 4.8517 29.1208 3.75244C28.5472 2.65318 27.88 2.60032 27.2613 2.92693C26.6426 3.25354 26.3068 3.83593 26.8804 4.93519Z" fill="#D7E8F5"/>
</svg>
